<svg xmlns="http://www.w3.org/2000/svg" width="1200" height="320" viewBox="0 0 1200 320" fill="none" role="img" aria-label="Roadmap: shipped and in-flight milestones across now and next">

  <defs>
    <linearGradient id="bg" x1="0" y1="0" x2="1200" y2="320" gradientUnits="userSpaceOnUse">
      <stop offset="0" stop-color="#FFFFFF"/><stop offset="1" stop-color="#EEF2FA"/>
    </linearGradient>
    <pattern id="grid" width="34" height="34" patternUnits="userSpaceOnUse">
      <path d="M34 0H0V34" stroke="#334155" stroke-opacity="0.06" stroke-width="1"/>
    </pattern>
  </defs>
  <rect width="1200" height="320" rx="16" fill="url(#bg)"/>
  <rect width="1200" height="320" rx="16" fill="url(#grid)"/>
  <style>
    .pulse { animation: p 3.4s ease-in-out infinite; }
    @keyframes p { 0%,100% { opacity:.55 } 50% { opacity:1 } }
    @media (prefers-reduced-motion: reduce) { .pulse { animation: none } }
  </style>
  <g>
    <polygon points="56,46 71,53.5 56,61 41,53.5" fill="#059669"/>
    <text x="82" y="58" font-family="ui-monospace, SFMono-Regular, Menlo, Consolas, monospace" font-size="11" letter-spacing="1.2" fill="#475569">SHIPPED</text>
    <polygon points="176,46 191,53.5 176,61 161,53.5" fill="none" stroke="#0891B2" stroke-width="1.2"/>
    <text x="202" y="58" font-family="ui-monospace, SFMono-Regular, Menlo, Consolas, monospace" font-size="11" letter-spacing="1.2" fill="#475569">IN FLIGHT</text>
  </g>
    <line x1="190" y1="130" x2="1130" y2="130" stroke="#CBD5E1" stroke-width="1.4" stroke-opacity="0.55"/>
    <text x="56" y="126" font-family="ui-monospace, SFMono-Regular, Menlo, Consolas, monospace" font-size="13" letter-spacing="2.6" fill="#475569">NOW</text>
    <text x="56" y="144" font-family="ui-sans-serif, -apple-system, 'Segoe UI', Inter, Helvetica, Arial, sans-serif" font-size="10.5" fill="#94A3B8">in the engine today</text>
      <g>
        <polygon points="205,130 190,138.5 190,153.5 205,145" fill="#03533a"/>
        <polygon points="175,130 190,138.5 190,153.5 175,145" fill="#023525"/>
        <polygon points="190,121.5 205,130 190,138.5 175,130" fill="#06a876"/>
      </g>
      <text x="190" y="178" text-anchor="middle" font-family="ui-sans-serif, -apple-system, 'Segoe UI', Inter, Helvetica, Arial, sans-serif" font-size="11.5" fill="#0B1120">Two-tier engine</text>
      
      <g>
        <polygon points="440,130 425,138.5 425,153.5 440,145" fill="#03533a"/>
        <polygon points="410,130 425,138.5 425,153.5 410,145" fill="#023525"/>
        <polygon points="425,121.5 440,130 425,138.5 410,130" fill="#06a876"/>
      </g>
      <text x="425" y="178" text-anchor="middle" font-family="ui-sans-serif, -apple-system, 'Segoe UI', Inter, Helvetica, Arial, sans-serif" font-size="11.5" fill="#0B1120">Backtest ↔</text>
      <text x="425" y="192" text-anchor="middle" font-family="ui-sans-serif, -apple-system, 'Segoe UI', Inter, Helvetica, Arial, sans-serif" font-size="11.5" fill="#0B1120">live parity</text>
      <g>
        <polygon points="675,130 660,138.5 660,153.5 675,145" fill="#03533a"/>
        <polygon points="645,130 660,138.5 660,153.5 645,145" fill="#023525"/>
        <polygon points="660,121.5 675,130 660,138.5 645,130" fill="#06a876"/>
      </g>
      <text x="660" y="178" text-anchor="middle" font-family="ui-sans-serif, -apple-system, 'Segoe UI', Inter, Helvetica, Arial, sans-serif" font-size="11.5" fill="#0B1120">Outcome logging</text>
      
      <g class="pulse" style="animation-delay:1.50s">
        <polygon points="910,130 895,138.5 895,153.5 910,145" fill="#0891B2" fill-opacity="0.10"/>
        <polygon points="880,130 895,138.5 895,153.5 880,145" fill="#0891B2" fill-opacity="0.06"/>
        <polygon points="895,121.5 910,130 895,138.5 880,130" fill="none" stroke="#0891B2" stroke-width="1.2" stroke-opacity="0.85"/>
        <polygon points="910,130 895,138.5 895,153.5 910,145" fill="none" stroke="#0891B2" stroke-width="1" stroke-opacity="0.4"/>
        <polygon points="880,130 895,138.5 895,153.5 880,145" fill="none" stroke="#0891B2" stroke-width="1" stroke-opacity="0.4"/>
      </g>
      <text x="895" y="178" text-anchor="middle" font-family="ui-sans-serif, -apple-system, 'Segoe UI', Inter, Helvetica, Arial, sans-serif" font-size="11.5" fill="#475569">Kill-switch telemetry</text>
      
      <g class="pulse" style="animation-delay:2.00s">
        <polygon points="1145,130 1130,138.5 1130,153.5 1145,145" fill="#0891B2" fill-opacity="0.10"/>
        <polygon points="1115,130 1130,138.5 1130,153.5 1115,145" fill="#0891B2" fill-opacity="0.06"/>
        <polygon points="1130,121.5 1145,130 1130,138.5 1115,130" fill="none" stroke="#0891B2" stroke-width="1.2" stroke-opacity="0.85"/>
        <polygon points="1145,130 1130,138.5 1130,153.5 1145,145" fill="none" stroke="#0891B2" stroke-width="1" stroke-opacity="0.4"/>
        <polygon points="1115,130 1130,138.5 1130,153.5 1115,145" fill="none" stroke="#0891B2" stroke-width="1" stroke-opacity="0.4"/>
      </g>
      <text x="1130" y="178" text-anchor="middle" font-family="ui-sans-serif, -apple-system, 'Segoe UI', Inter, Helvetica, Arial, sans-serif" font-size="11.5" fill="#475569">Portfolio risk</text>
      
    <line x1="190" y1="250" x2="1130" y2="250" stroke="#CBD5E1" stroke-width="1.4" stroke-opacity="0.55"/>
    <text x="56" y="246" font-family="ui-monospace, SFMono-Regular, Menlo, Consolas, monospace" font-size="13" letter-spacing="2.6" fill="#475569">NEXT</text>
    <text x="56" y="264" font-family="ui-sans-serif, -apple-system, 'Segoe UI', Inter, Helvetica, Arial, sans-serif" font-size="10.5" fill="#94A3B8">the next twelve months</text>
      <g class="pulse" style="animation-delay:0.00s">
        <polygon points="205,250 190,258.5 190,273.5 205,265" fill="#0891B2" fill-opacity="0.10"/>
        <polygon points="175,250 190,258.5 190,273.5 175,265" fill="#0891B2" fill-opacity="0.06"/>
        <polygon points="190,241.5 205,250 190,258.5 175,250" fill="none" stroke="#0891B2" stroke-width="1.2" stroke-opacity="0.85"/>
        <polygon points="205,250 190,258.5 190,273.5 205,265" fill="none" stroke="#0891B2" stroke-width="1" stroke-opacity="0.4"/>
        <polygon points="175,250 190,258.5 190,273.5 175,265" fill="none" stroke="#0891B2" stroke-width="1" stroke-opacity="0.4"/>
      </g>
      <text x="190" y="298" text-anchor="middle" font-family="ui-sans-serif, -apple-system, 'Segoe UI', Inter, Helvetica, Arial, sans-serif" font-size="11.5" fill="#475569">Regime detection</text>
      
      <g class="pulse" style="animation-delay:0.50s">
        <polygon points="440,250 425,258.5 425,273.5 440,265" fill="#0891B2" fill-opacity="0.10"/>
        <polygon points="410,250 425,258.5 425,273.5 410,265" fill="#0891B2" fill-opacity="0.06"/>
        <polygon points="425,241.5 440,250 425,258.5 410,250" fill="none" stroke="#0891B2" stroke-width="1.2" stroke-opacity="0.85"/>
        <polygon points="440,250 425,258.5 425,273.5 440,265" fill="none" stroke="#0891B2" stroke-width="1" stroke-opacity="0.4"/>
        <polygon points="410,250 425,258.5 425,273.5 410,265" fill="none" stroke="#0891B2" stroke-width="1" stroke-opacity="0.4"/>
      </g>
      <text x="425" y="298" text-anchor="middle" font-family="ui-sans-serif, -apple-system, 'Segoe UI', Inter, Helvetica, Arial, sans-serif" font-size="11.5" fill="#475569">Execution costs</text>
      
      <g class="pulse" style="animation-delay:1.00s">
        <polygon points="675,250 660,258.5 660,273.5 675,265" fill="#0891B2" fill-opacity="0.10"/>
        <polygon points="645,250 660,258.5 660,273.5 645,265" fill="#0891B2" fill-opacity="0.06"/>
        <polygon points="660,241.5 675,250 660,258.5 645,250" fill="none" stroke="#0891B2" stroke-width="1.2" stroke-opacity="0.85"/>
        <polygon points="675,250 660,258.5 660,273.5 675,265" fill="none" stroke="#0891B2" stroke-width="1" stroke-opacity="0.4"/>
        <polygon points="645,250 660,258.5 660,273.5 645,265" fill="none" stroke="#0891B2" stroke-width="1" stroke-opacity="0.4"/>
      </g>
      <text x="660" y="298" text-anchor="middle" font-family="ui-sans-serif, -apple-system, 'Segoe UI', Inter, Helvetica, Arial, sans-serif" font-size="11.5" fill="#475569">Multi-venue routing</text>
      
      <g class="pulse" style="animation-delay:1.50s">
        <polygon points="910,250 895,258.5 895,273.5 910,265" fill="#0891B2" fill-opacity="0.10"/>
        <polygon points="880,250 895,258.5 895,273.5 880,265" fill="#0891B2" fill-opacity="0.06"/>
        <polygon points="895,241.5 910,250 895,258.5 880,250" fill="none" stroke="#0891B2" stroke-width="1.2" stroke-opacity="0.85"/>
        <polygon points="910,250 895,258.5 895,273.5 910,265" fill="none" stroke="#0891B2" stroke-width="1" stroke-opacity="0.4"/>
        <polygon points="880,250 895,258.5 895,273.5 880,265" fill="none" stroke="#0891B2" stroke-width="1" stroke-opacity="0.4"/>
      </g>
      <text x="895" y="298" text-anchor="middle" font-family="ui-sans-serif, -apple-system, 'Segoe UI', Inter, Helvetica, Arial, sans-serif" font-size="11.5" fill="#475569">Research write-ups</text>
      
      <g class="pulse" style="animation-delay:2.00s">
        <polygon points="1145,250 1130,258.5 1130,273.5 1145,265" fill="#0891B2" fill-opacity="0.10"/>
        <polygon points="1115,250 1130,258.5 1130,273.5 1115,265" fill="#0891B2" fill-opacity="0.06"/>
        <polygon points="1130,241.5 1145,250 1130,258.5 1115,250" fill="none" stroke="#0891B2" stroke-width="1.2" stroke-opacity="0.85"/>
        <polygon points="1145,250 1130,258.5 1130,273.5 1145,265" fill="none" stroke="#0891B2" stroke-width="1" stroke-opacity="0.4"/>
        <polygon points="1115,250 1130,258.5 1130,273.5 1115,265" fill="none" stroke="#0891B2" stroke-width="1" stroke-opacity="0.4"/>
      </g>
      <text x="1130" y="298" text-anchor="middle" font-family="ui-sans-serif, -apple-system, 'Segoe UI', Inter, Helvetica, Arial, sans-serif" font-size="11.5" fill="#475569">Open-source core</text>
      
  <rect x="0.5" y="0.5" width="1199" height="319" rx="16" stroke="#0B1120" stroke-opacity="0.1"/>
</svg>
